<?xml version="1.0" encoding="utf-8"?>
<!-- Generator: Adobe Illustrator 17.0.0, SVG Export Plug-In . SVG Version: 6.00 Build 0)  -->
<!DOCTYPE svg PUBLIC "-//W3C//DTD SVG 1.1//EN" "http://www.w3.org/Graphics/SVG/1.1/DTD/svg11.dtd">
<svg version="1.1" id="Layer_1" xmlns="http://www.w3.org/2000/svg" xmlns:xlink="http://www.w3.org/1999/xlink" x="0px" y="0px"
	 width="156.198px" height="138.843px" viewBox="0 0 156.198 138.843" enable-background="new 0 0 156.198 138.843"
	 xml:space="preserve">
<path fill="#FFFFFF" d="M88.886,64.566c-7.857,0-14.25-6.392-14.25-14.25c0-1.381,1.119-2.5,2.5-2.5s2.5,1.119,2.5,2.5
	c0,5.1,4.149,9.25,9.25,9.25h13.253l3.291-3.291c3.138-3.138,3.138-8.224,0-11.362L83.069,22.552c-3.138-3.138-8.225-3.138-11.362,0
	L49.346,44.913c-3.138,3.138-3.138,8.225,0,11.362l13.721,13.721V50.678c0-7.857,6.392-14.25,14.25-14.25s14.25,6.393,14.25,14.25
	c0,1.381-1.119,2.5-2.5,2.5s-2.5-1.119-2.5-2.5c0-5.101-4.149-9.25-9.25-9.25c-5.1,0-9.25,4.149-9.25,9.25v24.318l3.64,3.64
	c3.138,3.138,8.225,3.138,11.362,0l14.07-14.07H88.886z"/>
<text transform="matrix(1 0 0 1 16.1142 116.7289)" fill="#FFFFFF" font-family="'OpenSans-Bold'" font-size="25" letter-spacing="-1">Pure Labs</text>
</svg>
