<?xml version="1.0" encoding="utf-8"?>
<!-- Generator: Adobe Illustrator 17.0.0, SVG Export Plug-In . SVG Version: 6.00 Build 0)  -->
<!DOCTYPE svg PUBLIC "-//W3C//DTD SVG 1.1//EN" "http://www.w3.org/Graphics/SVG/1.1/DTD/svg11.dtd">
<svg version="1.1" id="Layer_1" xmlns="http://www.w3.org/2000/svg" xmlns:xlink="http://www.w3.org/1999/xlink" x="0px" y="0px"
	 width="156.198px" height="138.843px" viewBox="0 0 156.198 138.843" enable-background="new 0 0 156.198 138.843"
	 xml:space="preserve">
<path fill="#FFFFFF" d="M88.886,64.566c-7.857,0-14.25-6.392-14.25-14.25c0-1.381,1.119-2.5,2.5-2.5s2.5,1.119,2.5,2.5
	c0,5.1,4.149,9.25,9.25,9.25h13.253l3.291-3.291c3.138-3.138,3.138-8.224,0-11.362L83.069,22.552c-3.138-3.138-8.225-3.138-11.362,0
	L49.346,44.913c-3.138,3.138-3.138,8.225,0,11.362l13.721,13.721V50.678c0-7.857,6.392-14.25,14.25-14.25s14.25,6.393,14.25,14.25
	c0,1.381-1.119,2.5-2.5,2.5s-2.5-1.119-2.5-2.5c0-5.101-4.149-9.25-9.25-9.25c-5.1,0-9.25,4.149-9.25,9.25v24.318l3.64,3.64
	c3.138,3.138,8.225,3.138,11.362,0l14.07-14.07H88.886z"/>
<g enable-background="new    ">
	<path fill="#FFFFFF" d="M28.689,104.449c0,1.921-0.6,3.39-1.801,4.407c-1.2,1.017-2.907,1.525-5.121,1.525h-1.624v6.348H16.36
		V98.882h5.701c2.165,0,3.811,0.466,4.938,1.397C28.126,101.213,28.689,102.601,28.689,104.449z M20.144,107.281h1.245
		c1.164,0,2.034-0.229,2.612-0.689c0.578-0.46,0.867-1.13,0.867-2.009c0-0.887-0.242-1.542-0.726-1.965
		c-0.484-0.423-1.244-0.635-2.277-0.635h-1.721V107.281z"/>
	<path fill="#FFFFFF" d="M45.585,98.882v11.548c0,1.318-0.295,2.474-0.885,3.467c-0.59,0.993-1.443,1.754-2.558,2.283
		c-1.115,0.528-2.434,0.793-3.955,0.793c-2.295,0-4.077-0.588-5.347-1.764s-1.904-2.785-1.904-4.828V98.882h3.772v10.925
		c0,1.376,0.276,2.385,0.83,3.027c0.553,0.644,1.469,0.965,2.747,0.965c1.237,0,2.134-0.323,2.691-0.971
		c0.558-0.646,0.836-1.662,0.836-3.045V98.882H45.585z"/>
	<path fill="#FFFFFF" d="M52.739,109.881v6.848h-3.784V98.882h5.2c2.425,0,4.219,0.441,5.383,1.324
		c1.164,0.884,1.746,2.224,1.746,4.022c0,1.05-0.289,1.983-0.867,2.802c-0.578,0.817-1.396,1.458-2.454,1.923
		c2.686,4.012,4.435,6.604,5.249,7.775h-4.199l-4.26-6.848H52.739z M52.739,106.805h1.221c1.196,0,2.079-0.2,2.649-0.599
		c0.569-0.398,0.854-1.025,0.854-1.88c0-0.847-0.291-1.448-0.873-1.807c-0.582-0.358-1.483-0.537-2.704-0.537h-1.147V106.805z"/>
	<path fill="#FFFFFF" d="M74.737,116.729H64.459V98.882h10.278v3.101h-6.494v3.918h6.042v3.102h-6.042v4.602h6.494V116.729z"/>
	<path fill="#FFFFFF" d="M82.954,116.729V98.882h3.784v14.722h7.239v3.125H82.954z"/>
	<path fill="#FFFFFF" d="M107.003,116.729l-1.294-4.248h-6.506l-1.294,4.248h-4.077l6.299-17.92h4.626l6.323,17.92H107.003z
		 M104.806,109.307c-1.196-3.85-1.869-6.026-2.02-6.531c-0.151-0.504-0.259-0.902-0.324-1.195c-0.269,1.041-1.037,3.617-2.307,7.727
		H104.806z"/>
	<path fill="#FFFFFF" d="M112.327,98.882h5.555c2.53,0,4.368,0.36,5.511,1.08c1.144,0.721,1.716,1.866,1.716,3.437
		c0,1.066-0.251,1.941-0.751,2.625c-0.501,0.684-1.166,1.094-1.996,1.232v0.122c1.131,0.252,1.947,0.725,2.447,1.416
		c0.501,0.691,0.751,1.611,0.751,2.759c0,1.628-0.588,2.897-1.764,3.809s-2.773,1.367-4.791,1.367h-6.678V98.882z M116.111,105.95
		h2.197c1.025,0,1.769-0.158,2.228-0.476c0.46-0.317,0.69-0.843,0.69-1.575c0-0.684-0.251-1.173-0.751-1.471
		c-0.501-0.297-1.292-0.445-2.374-0.445h-1.99V105.95z M116.111,108.954v4.65h2.466c1.042,0,1.811-0.199,2.308-0.598
		c0.496-0.399,0.744-1.01,0.744-1.832c0-1.48-1.058-2.221-3.174-2.221H116.111z"/>
	<path fill="#FFFFFF" d="M138.659,111.773c0,1.611-0.58,2.881-1.74,3.809c-1.159,0.928-2.772,1.392-4.84,1.392
		c-1.904,0-3.589-0.358-5.054-1.074v-3.516c1.204,0.537,2.224,0.916,3.058,1.135c0.835,0.221,1.598,0.33,2.289,0.33
		c0.83,0,1.467-0.158,1.91-0.477c0.444-0.316,0.666-0.789,0.666-1.416c0-0.35-0.098-0.66-0.293-0.934
		c-0.195-0.272-0.482-0.535-0.861-0.787c-0.378-0.252-1.149-0.655-2.312-1.209c-1.091-0.512-1.909-1.005-2.454-1.477
		s-0.98-1.021-1.306-1.648c-0.326-0.626-0.488-1.358-0.488-2.197c0-1.578,0.535-2.819,1.604-3.723
		c1.07-0.903,2.55-1.355,4.438-1.355c0.928,0,1.812,0.11,2.655,0.33c0.842,0.22,1.723,0.529,2.643,0.928l-1.221,2.941
		c-0.952-0.391-1.739-0.663-2.362-0.817c-0.622-0.154-1.234-0.231-1.837-0.231c-0.716,0-1.266,0.166-1.647,0.5
		c-0.383,0.334-0.574,0.77-0.574,1.307c0,0.333,0.077,0.624,0.232,0.872c0.154,0.249,0.4,0.488,0.738,0.721
		c0.338,0.231,1.137,0.648,2.398,1.251c1.668,0.798,2.812,1.598,3.431,2.398C138.349,109.627,138.659,110.609,138.659,111.773z"/>
</g>
</svg>
